<svg width="32" height="33" viewBox="0 0 32 33" fill="none" xmlns="http://www.w3.org/2000/svg">
<path fill-rule="evenodd" clip-rule="evenodd" d="M7.66669 16.5C7.66669 11.8972 11.3972 8.16666 16 8.16666C20.6028 8.16666 24.3334 11.8972 24.3334 16.5C24.3334 21.1027 20.6028 24.8333 16 24.8333C11.3972 24.8333 7.66669 21.1027 7.66669 16.5ZM9.33335 16.5C9.33335 20.1823 12.3177 23.1667 16 23.1667C19.6824 23.1667 22.6667 20.1823 22.6667 16.5C22.6667 12.8177 19.6824 9.83332 16 9.83332C12.3177 9.83332 9.33335 12.8177 9.33335 16.5ZM12.6667 14.8333C12.6667 12.7365 14.6012 11.0926 16.7824 11.5893C17.9858 11.8626 18.9641 12.8376 19.2416 14.0401C19.6508 15.8142 18.6433 17.4092 17.1324 17.9559C16.9624 18.0167 16.8416 18.1684 16.8416 18.3492V18.1667C16.8416 18.6267 16.4691 19.0001 16.0083 19.0001C15.5483 19.0001 15.1749 18.6267 15.1749 18.1667V17.3226C15.1816 16.8676 15.5499 16.5001 15.9999 16.5001C16.9191 16.5001 17.6666 15.7517 17.6666 14.8334C17.6666 13.9143 16.9191 13.1668 15.9999 13.1668C15.0799 13.1668 14.3328 13.9359 14.3337 14.8559C14.321 15.3055 13.9524 15.6667 13.5 15.6667C13.0648 15.6667 12.7072 15.3325 12.6699 14.9068C12.6699 14.9068 12.6667 14.8581 12.6667 14.8333ZM16 21.5C15.54 21.5 15.1667 21.1267 15.1667 20.6667C15.1667 20.2067 15.54 19.8333 16 19.8333C16.46 19.8333 16.8334 20.2067 16.8334 20.6667C16.8334 21.1267 16.46 21.5 16 21.5Z" fill="#9FADBC"/>
</svg>
