<svg width="32" height="41" viewBox="0 0 32 41" fill="none" xmlns="http://www.w3.org/2000/svg">
<path fill-rule="evenodd" clip-rule="evenodd" d="M16.3365 12.2811C15.9399 12.0511 15.4916 11.9005 15.0132 11.8511C15.4717 11.0443 16.339 10.5 17.3333 10.5C18.8061 10.5 20 11.6939 20 13.1667C20 13.8279 19.7593 14.4329 19.3609 14.8989C21.3008 15.6969 22.6667 17.6056 22.6667 19.8333C22.6667 20.2015 22.3682 20.5 22 20.5H20.518C20.4119 20.0325 20.2512 19.5857 20.043 19.1667H21.278C20.9928 17.4665 19.635 16.13 17.9242 15.8767C17.9739 15.6479 18 15.4103 18 15.1667C18 14.8927 17.9669 14.6265 17.9047 14.3718C18.3552 14.1578 18.6667 13.6986 18.6667 13.1667C18.6667 12.4303 18.0697 11.8333 17.3333 11.8333C16.9369 11.8333 16.5807 12.0064 16.3365 12.2811ZM14.6667 16.5C15.4031 16.5 16 15.9031 16 15.1667C16 14.4303 15.4031 13.8333 14.6667 13.8333C13.9303 13.8333 13.3333 14.4303 13.3333 15.1667C13.3333 15.9031 13.9303 16.5 14.6667 16.5ZM17.3333 15.1667C17.3333 15.8279 17.0927 16.4329 16.6941 16.8989C18.6341 17.6969 20 19.6056 20 21.8333C20 22.2015 19.7015 22.5 19.3333 22.5H10C9.63182 22.5 9.33334 22.2015 9.33334 21.8333C9.33334 19.6056 10.6992 17.6969 12.6392 16.8989C12.2407 16.4329 12 15.8279 12 15.1667C12 13.6939 13.1939 12.5 14.6667 12.5C16.1394 12.5 17.3333 13.6939 17.3333 15.1667ZM14.6667 17.8333C16.6487 17.8333 18.294 19.2749 18.6113 21.1667H10.722C11.0394 19.2749 12.6847 17.8333 14.6667 17.8333Z" fill="white"/>
</svg>
