<svg width="11" height="13" viewBox="0 0 11 13" fill="none" xmlns="http://www.w3.org/2000/svg">
<path d="M3.92986 0.739577C3.99865 0.593065 4.14607 0.499641 4.30794 0.500001L9.61095 0.511721C9.77255 0.512073 9.91943 0.605905 9.98767 0.752449C10.056 0.898993 10.0333 1.07179 9.92951 1.19577L7.06383 4.62068H9.49311C9.66375 4.62068 9.81719 4.72475 9.88023 4.88333C9.94335 5.0419 9.90335 5.22292 9.77935 5.34015L1.79598 12.8862C1.64692 13.027 1.41751 13.0385 1.25516 12.9132C1.0928 12.7878 1.04579 12.563 1.14434 12.3831L3.66211 7.78736H1.27665C1.13407 7.78736 1.00139 7.71448 0.924947 7.59408C0.848499 7.47376 0.83889 7.32264 0.89949 7.1936L3.92986 0.739577Z" fill="white"/>
</svg>
