<svg width="16" height="17" viewBox="0 0 16 17" fill="none" xmlns="http://www.w3.org/2000/svg">
<path fill-rule="evenodd" clip-rule="evenodd" d="M1.33334 4.96666V10.3C1.33334 11.0364 1.9303 11.6333 2.66668 11.6333H4.00001C4.73639 11.6333 5.33334 11.0364 5.33334 10.3V4.96666C5.33334 4.23028 4.73639 3.63333 4.00001 3.63333H2.66668C1.9303 3.63333 1.33334 4.23028 1.33334 4.96666ZM2.66668 4.96666V10.3H4.00001V4.96666H2.66668Z" fill="#172B4D"/>
<path fill-rule="evenodd" clip-rule="evenodd" d="M6 4.96666V8.96666C6 9.70306 6.59695 10.3 7.33333 10.3H8.66667C9.40307 10.3 10 9.70306 10 8.96666V4.96666C10 4.23028 9.40307 3.63333 8.66667 3.63333H7.33333C6.59695 3.63333 6 4.23028 6 4.96666ZM7.33333 4.96666V8.96666H8.66667V4.96666H7.33333Z" fill="#172B4D"/>
<path fill-rule="evenodd" clip-rule="evenodd" d="M10.6667 11.6333V4.96666C10.6667 4.23028 11.2636 3.63333 12 3.63333H13.3333C14.0697 3.63333 14.6667 4.23028 14.6667 4.96666V11.6333C14.6667 12.3697 14.0697 12.9667 13.3333 12.9667H12C11.2636 12.9667 10.6667 12.3697 10.6667 11.6333ZM12 11.6333V4.96666H13.3333V11.6333H12Z" fill="#172B4D"/>
</svg>
