<svg width="36" height="33" viewBox="0 0 36 33" fill="none" xmlns="http://www.w3.org/2000/svg">
<path fill-rule="evenodd" clip-rule="evenodd" d="M10.586 22.329C10.7717 22.5148 10.9922 22.6622 11.2349 22.7628C11.4776 22.8633 11.7378 22.9151 12.0005 22.9151C12.2632 22.9151 12.5233 22.8633 12.766 22.7628C13.0087 22.6622 13.2292 22.5148 13.415 22.329L10.585 19.5C10.3992 19.6857 10.2518 19.9062 10.1512 20.1489C10.0507 20.3917 9.9989 20.6518 9.9989 20.9145C9.9989 21.1772 10.0507 21.4374 10.1512 21.6801C10.2518 21.9228 10.4002 22.1433 10.586 22.329ZM15.384 9.978C15.8524 9.50875 16.4089 9.13663 17.0216 8.883C17.6342 8.62937 18.2909 8.49921 18.954 8.5C19.926 8.5 20.899 8.78 21.742 9.339C21.762 9.313 21.785 9.289 21.808 9.265C21.9043 9.16644 22.0197 9.08862 22.1472 9.03633C22.2747 8.98405 22.4116 8.95841 22.5493 8.96099C22.6871 8.96357 22.8229 8.99432 22.9484 9.05134C23.0738 9.10837 23.1863 9.19046 23.2788 9.29256C23.3713 9.39467 23.442 9.51463 23.4864 9.64507C23.5309 9.77551 23.5482 9.91366 23.5372 10.051C23.5263 10.1884 23.4873 10.3221 23.4228 10.4438C23.3583 10.5656 23.2695 10.6728 23.162 10.759C23.8046 11.7298 24.0919 12.8928 23.9752 14.0511C23.8586 15.2094 23.3452 16.2918 22.522 17.115L21.797 17.84C21.015 18.623 19.984 20.05 19.485 21.047L17.976 24.063C17.727 24.563 17.203 24.647 16.805 24.25L8.24897 15.695C7.85197 15.298 7.94097 14.771 8.43597 14.523L11.453 13.015C12.442 12.521 13.873 11.489 14.659 10.703L15.384 9.978ZM18.123 19.608C18.64 18.633 19.691 17.212 20.477 16.426L21.202 15.7C21.6984 15.2032 22.0081 14.5502 22.0786 13.8514C22.1491 13.1527 21.9762 12.451 21.589 11.865C21.399 11.579 20.871 11.099 20.73 11.005C20.2308 10.6748 19.6454 10.4992 19.047 10.5C18.6466 10.4994 18.25 10.5778 17.88 10.7309C17.51 10.884 17.1739 11.1087 16.891 11.392L15.941 12.343C15.157 13.128 13.722 14.163 12.74 14.654L11 15.524L17.07 21.593L18.123 19.608Z" fill="#9FADBC"/>
</svg>
