<svg width="14" height="14" viewBox="0 0 14 14" fill="none" xmlns="http://www.w3.org/2000/svg">
<path fill-rule="evenodd" clip-rule="evenodd" d="M0.333313 1.26668C0.333313 0.80645 0.706413 0.43335 1.16665 0.43335H2.83331C3.29355 0.43335 3.66665 0.80645 3.66665 1.26668V2.93335C3.66665 3.39358 3.29355 3.76668 2.83331 3.76668H1.16665C0.706413 3.76668 0.333313 3.39358 0.333313 2.93335V1.26668ZM0.333313 6.26668C0.333313 5.80643 0.706413 5.43335 1.16665 5.43335H2.83331C3.29355 5.43335 3.66665 5.80643 3.66665 6.26668V7.93335C3.66665 8.3936 3.29355 8.76668 2.83331 8.76668H1.16665C0.706413 8.76668 0.333313 8.3936 0.333313 7.93335V6.26668ZM6.16665 0.43335C5.7064 0.43335 5.33331 0.80645 5.33331 1.26668V2.93335C5.33331 3.39358 5.7064 3.76668 6.16665 3.76668H7.83331C8.29356 3.76668 8.66665 3.39358 8.66665 2.93335V1.26668C8.66665 0.80645 8.29356 0.43335 7.83331 0.43335H6.16665ZM5.33331 6.26668C5.33331 5.80643 5.7064 5.43335 6.16665 5.43335H7.83331C8.29356 5.43335 8.66665 5.80643 8.66665 6.26668V7.93335C8.66665 8.3936 8.29356 8.76668 7.83331 8.76668H6.16665C5.7064 8.76668 5.33331 8.3936 5.33331 7.93335V6.26668ZM11.1666 0.43335C10.7064 0.43335 10.3333 0.80645 10.3333 1.26668V2.93335C10.3333 3.39358 10.7064 3.76668 11.1666 3.76668H12.8333C13.2936 3.76668 13.6666 3.39358 13.6666 2.93335V1.26668C13.6666 0.80645 13.2936 0.43335 12.8333 0.43335H11.1666ZM10.3333 6.26668C10.3333 5.80643 10.7064 5.43335 11.1666 5.43335H12.8333C13.2936 5.43335 13.6666 5.80643 13.6666 6.26668V7.93335C13.6666 8.3936 13.2936 8.76668 12.8333 8.76668H11.1666C10.7064 8.76668 10.3333 8.3936 10.3333 7.93335V6.26668ZM1.16665 10.4333C0.706413 10.4333 0.333313 10.8064 0.333313 11.2667V12.9333C0.333313 13.3936 0.706413 13.7667 1.16665 13.7667H2.83331C3.29355 13.7667 3.66665 13.3936 3.66665 12.9333V11.2667C3.66665 10.8064 3.29355 10.4333 2.83331 10.4333H1.16665ZM5.33331 11.2667C5.33331 10.8064 5.7064 10.4333 6.16665 10.4333H7.83331C8.29356 10.4333 8.66665 10.8064 8.66665 11.2667V12.9333C8.66665 13.3936 8.29356 13.7667 7.83331 13.7667H6.16665C5.7064 13.7667 5.33331 13.3936 5.33331 12.9333V11.2667ZM11.1666 10.4333C10.7064 10.4333 10.3333 10.8064 10.3333 11.2667V12.9333C10.3333 13.3936 10.7064 13.7667 11.1666 13.7667H12.8333C13.2936 13.7667 13.6666 13.3936 13.6666 12.9333V11.2667C13.6666 10.8064 13.2936 10.4333 12.8333 10.4333H11.1666Z" fill="#9FADBC"/>
</svg>
