<svg width="17" height="17" viewBox="0 0 17 17" fill="none" xmlns="http://www.w3.org/2000/svg">
<path d="M12.0273 2.27006C12.6911 2.19706 13.3835 2.37144 13.936 2.92397L12.9932 3.86678C12.7728 3.64638 12.5034 3.55556 12.1671 3.59255C11.7995 3.63297 11.3573 3.8083 10.8591 4.09026C10.3681 4.36813 9.87466 4.71903 9.405 5.06359C9.33426 5.1155 9.2632 5.1679 9.19233 5.2202C8.813 5.50004 8.43773 5.77687 8.13013 5.95918C7.80053 6.15454 7.45086 6.14646 7.24026 6.12542C7.01891 6.10331 6.49289 6.09831 5.65568 6.37898C5.13742 6.55273 4.50411 6.96634 3.96398 7.37846L3.92258 7.41019C4.08719 7.44472 4.26081 7.47639 4.43508 7.50506C4.77399 7.56086 5.10082 7.60286 5.34395 7.63092C5.46516 7.64492 5.56472 7.65539 5.63353 7.66226C5.66792 7.66572 5.69459 7.66832 5.71238 7.66999L5.73226 7.67186L5.7379 7.67232L6.33718 8.40686L6.33691 8.41052L6.3353 8.42559C6.33386 8.43932 6.33172 8.46026 6.3291 8.48752C6.32386 8.54212 6.31677 8.62172 6.3096 8.71912C6.2952 8.91492 6.2809 9.17752 6.28032 9.45086C6.27972 9.72832 6.2934 9.99579 6.32843 10.2087C6.35313 10.3587 6.38066 10.4309 6.3902 10.4559C6.39284 10.4628 6.39355 10.4665 6.39355 10.4665C6.39355 10.4665 6.39721 10.4671 6.40414 10.4698C6.42914 10.4793 6.50126 10.5069 6.65134 10.5316C6.86418 10.5666 7.13166 10.5803 7.40913 10.5797C7.68246 10.5791 7.94513 10.5648 8.14093 10.5504L8.45273 10.5227L9.1876 11.122L9.22906 11.5161C9.25713 11.7592 9.29913 12.086 9.35493 12.4249C9.3836 12.5992 9.41533 12.7728 9.4498 12.9374L9.48153 12.896C9.89366 12.3559 10.3073 11.7226 10.481 11.2043C10.7617 10.3671 10.7567 9.84106 10.7346 9.61972C10.7135 9.40912 10.7055 9.05946 10.9008 8.72986C11.0831 8.42226 11.3599 8.04706 11.6398 7.66766C11.6921 7.59679 11.7445 7.52572 11.7964 7.45499C12.141 6.98531 12.4919 6.49188 12.7697 6.00094C13.0517 5.50276 13.227 5.06044 13.2675 4.69292C13.3045 4.35657 13.2136 4.08718 12.9932 3.86678L13.936 2.92397C14.4885 3.4765 14.6629 4.16888 14.5899 4.83272C14.5203 5.46539 14.2429 6.09415 13.9269 6.6525C13.6068 7.21812 13.2145 7.76666 12.868 8.23892C12.8093 8.31892 12.7526 8.39592 12.6979 8.47012C12.4231 8.84319 12.201 9.14459 12.0559 9.38559C12.0542 9.40232 12.0535 9.43272 12.0585 9.48179C12.1002 9.89979 12.08 10.6151 11.7423 11.6223C11.4945 12.3617 10.9643 13.1415 10.5379 13.7002C10.3183 13.9881 10.1129 14.2343 9.96226 14.4086C9.8868 14.4959 9.82473 14.5657 9.78093 14.6143C9.759 14.6385 9.74166 14.6575 9.72953 14.6707L9.71113 14.6907L9.70926 14.6927C9.58586 14.8247 9.4142 14.9014 9.23386 14.9049C9.05353 14.9083 8.87986 14.8384 8.7526 14.7111C8.60873 14.5673 8.5142 14.3885 8.45073 14.2451C8.3826 14.0912 8.3254 13.9197 8.27673 13.7483C8.17933 13.4051 8.10186 13.0099 8.04206 12.6465C7.99773 12.3769 7.9618 12.1167 7.93406 11.8958C7.77326 11.9039 7.59306 11.9097 7.40626 11.9101C7.0958 11.9108 6.74594 11.8965 6.42978 11.8444C6.15475 11.7991 5.7284 11.6869 5.45074 11.4093C5.17308 11.1316 5.06086 10.7053 5.0156 10.4302C4.96356 10.1141 4.94918 9.76426 4.94985 9.45372C4.95026 9.26692 4.95617 9.08672 4.96423 8.92592C4.74334 8.89826 4.4831 8.86226 4.21352 8.81792C3.85014 8.75812 3.45491 8.68066 3.11167 8.58326C2.94026 8.53459 2.76878 8.47739 2.61487 8.40926C2.47155 8.34579 2.29276 8.25126 2.14888 8.10739C2.02162 7.98012 1.95172 7.80646 1.95517 7.62612C1.95862 7.44579 2.03514 7.27426 2.1672 7.15086L2.16934 7.14887L2.17375 7.14478L2.18924 7.13048C2.20248 7.11831 2.22147 7.10097 2.24575 7.07907C2.29428 7.0353 2.36408 6.97318 2.45142 6.89773C2.62577 6.74712 2.87187 6.54174 3.15979 6.32205C3.71846 5.89577 4.49834 5.36556 5.23768 5.1177C6.24493 4.78002 6.96024 4.75979 7.3782 4.80154C7.42726 4.80644 7.45766 4.8058 7.4744 4.80408C7.7154 4.65901 8.0168 4.43694 8.38986 4.16208C8.46406 4.10742 8.54106 4.05066 8.62106 3.99202C9.09333 3.64554 9.64186 3.2532 10.2075 2.93308C10.7659 2.61706 11.3946 2.33964 12.0273 2.27006Z" fill="white"/>
<path d="M10.6362 6.22383C10.8965 6.48417 11.3187 6.48417 11.579 6.22383C11.8393 5.96348 11.8393 5.54137 11.579 5.28102C11.3187 5.02067 10.8965 5.02067 10.6362 5.28102C10.3759 5.54137 10.3759 5.96348 10.6362 6.22383Z" fill="white"/>
</svg>
