<svg width="32" height="33" viewBox="0 0 32 33" fill="none" xmlns="http://www.w3.org/2000/svg">
<path fill-rule="evenodd" clip-rule="evenodd" d="M12.9966 22.4967L15.9999 20.9177L19.0033 22.4967C19.2039 22.6022 19.4338 22.6386 19.6573 22.6003C20.2184 22.504 20.5953 21.9711 20.4991 21.4099L19.9255 18.0657L22.3552 15.6973C22.5175 15.539 22.6232 15.3317 22.6558 15.1073C22.7377 14.5439 22.3473 14.0207 21.7839 13.9388L18.4261 13.4509L16.9244 10.4083C16.8241 10.2049 16.6595 10.0404 16.4562 9.94003C15.9456 9.68805 15.3275 9.89768 15.0755 10.4083L13.5738 13.4509L10.216 13.9388C9.99166 13.9714 9.7843 14.0771 9.62604 14.2395C9.22862 14.6472 9.23696 15.2999 9.64467 15.6973L12.0744 18.0657L11.5008 21.4099C11.4625 21.6333 11.4989 21.8632 11.6044 22.0639C11.8693 22.5679 12.4927 22.7616 12.9966 22.4967ZM20.8971 15.199L18.4485 17.5858L19.0265 20.956L15.9999 19.3648L12.9733 20.956L13.5513 17.5858L11.1027 15.199L14.4866 14.7073L15.9999 11.641L17.5133 14.7073L20.8971 15.199Z" fill="white"/>
</svg>
